<svg width="102" height="102" viewBox="0 0 102 102" fill="none" xmlns="http://www.w3.org/2000/svg">
<path d="M58.9814 84C77.6724 65.5442 77.6731 35.4558 58.982 17C40.291 35.4558 40.2904 65.5442 58.9814 84ZM58.9814 84C69.0969 59.8864 57.4349 32.0891 33.0139 22.1009C22.8983 46.2146 34.5604 74.0118 58.9814 84ZM58.9814 84C58.9814 57.8996 37.4331 36.6239 11 36.6239C11 62.7242 32.5483 84 58.9814 84ZM91 75C91 79.9706 86.9706 84 82 84C77.0294 84 73 79.9706 73 75C73 70.0294 77.0294 66 82 66C86.9706 66 91 70.0294 91 75Z" stroke="#1071E5" stroke-width="2"/>
</svg>
